<svg id="Layer_5" enable-background="new 0 0 64 64" height="512" viewBox="0 0 64 64" width="512" xmlns="http://www.w3.org/2000/svg"><g><path d="m15 27c6.617 0 12-5.383 12-12s-5.383-12-12-12-12 5.383-12 12 5.383 12 12 12zm-8-12c0 4.411 3.589 8 8 8v2c-5.514 0-10-4.486-10-10z"/><path d="m34.494 31c.661 0 1.35-2.001 1.805-3.325.79-2.298 1.606-4.675 3.695-4.675s2.906 2.376 3.696 4.674c.456 1.325 1.145 3.326 1.807 3.326.664 0 1.354-2.002 1.811-3.327.145-.42.292-.833.443-1.236l-3.833-5.411c-.898-1.268-2.363-2.026-3.918-2.026s-3.02.758-3.919 2.026l-3.834 5.414c.15.402.297.815.442 1.234.456 1.325 1.144 3.326 1.805 3.326z"/><path d="m27.188 41h30.878l-8.904-12.571c-.781 2.266-1.606 4.571-3.665 4.571-2.09 0-2.907-2.377-3.697-4.676-.456-1.323-1.144-3.324-1.806-3.324-.661 0-1.35 2.001-1.805 3.325-.79 2.298-1.606 4.675-3.695 4.675-2.055 0-2.88-2.303-3.659-4.567l-6.511 9.193c1.209.679 2.211 1.875 2.864 3.374z"/><path d="m26 45c0-3.252-1.832-6-4-6-.449 0-.886.122-1.308.35.2.86.308 1.747.308 2.65 0 2.43-.763 4.749-2.125 6.691.546 1.03 1.297 1.772 2.125 2.107v-3.798h2v3.794c1.702-.687 3-3.059 3-5.794z"/><path d="m52 59h-2c0-2.801 1.322-5.972 2.253-7.855-1.51.208-3.651.722-4.996 1.964.461.811.743 1.763.743 2.891v1h-2v-1c0-3.455-3.896-4.523-6.251-4.853.93 1.884 2.251 5.053 2.251 7.853h-2c0-1.58-1.089-2.328-2.132-2.683.662 1.472 1.024 3.058 1.1 4.683h14.064c.076-1.621.436-3.204 1.095-4.672-1.041.358-2.127 1.107-2.127 2.672z"/><path d="m14 50.663c.041-.028.09-.04.129-.072l1.391-1.158c2.211-1.844 3.48-4.553 3.48-7.433s-1.269-5.589-3.481-7.433l-1.39-1.158c-.317-.263-.718-.409-1.129-.409s-.812.146-1.129.409l-1.391 1.158c-2.211 1.844-3.48 4.553-3.48 7.433s1.269 5.589 3.481 7.433l1.39 1.158c.039.032.088.044.129.072v-10.249l-1.707-1.707 1.414-1.414 2.293 2.293v2l1.293-1.293 1.414 1.414-2.707 2.707z"/><path d="m27.803 43c.124.641.197 1.308.197 2 0 3.956-2.167 7.242-5 7.88v4.12h2v2h-6v-2h2v-4.125c-1.351-.305-2.578-1.218-3.481-2.575-.233.229-.466.458-.719.67l-1.392 1.158c-.413.344-.897.58-1.408.722v4.15h2v2h-6v-2h2v-4.15c-.512-.142-.996-.378-1.408-.722l-1.391-1.158c-2.411-2.011-3.882-4.874-4.146-7.97h-2.055v18h33.978c-.107-1.944-.724-3.816-1.81-5.445l-1.036-1.555h1.868c.85 0 2.009.181 3.082.659-.829-2.271-1.922-4.116-1.94-4.146l-.906-1.513h1.764c2.244 0 5.777.625 7.988 2.569 2.852-2.529 7.783-2.569 8.012-2.569h1.765l-.907 1.514c-.018.03-1.111 1.874-1.94 4.146 1.073-.479 2.232-.66 3.082-.66h1.868l-1.036 1.555c-1.086 1.629-1.703 3.501-1.81 5.445h5.978v-18z"/></g></svg>